<?xml version="1.0" encoding="UTF-8"?>
<svg xmlns="http://www.w3.org/2000/svg" viewBox="0 0 198.42 198.43">
  <defs>
    <style>
      .cls-1 {
        fill: #fff;
      }

      .cls-2 {
        fill: #003686;
      }

      .cls-3 {
        fill: #231815;
      }
    </style>
  </defs>
  <g>
    <path class="cls-2" d="M178.58,0H19.84C8.88,0,0,8.89,0,19.85v158.74c0,10.96,8.88,19.84,19.84,19.84h158.74c10.97,0,19.85-8.88,19.85-19.84V19.85c0-10.96-8.88-19.85-19.85-19.85"/>
    <rect class="cls-1" x="19.84" y="19.85" width="158.74" height="158.74"/>
    <g>
      <path class="cls-3" d="M28.86,64.08h23.44l11.84,46.4h.16l12.4-46.4h22.56v69.8h-14.56l.24-53.6h-.16l-14.24,53.6h-13.68l-13.6-53.6h-.16l.32,53.6h-14.56v-69.8Z"/>
      <path class="cls-3" d="M139.41,62.88c21.85,0,33.25,13.7,33.25,36.1s-11.59,36.1-33.25,36.1-33.25-13.9-33.25-36.1,11.4-36.1,33.25-36.1ZM139.41,121.29c10.74,0,15.01-10.8,15.01-22.3,0-12.1-4.28-22.3-15.01-22.3s-15.01,10.2-15.01,22.3,4.28,22.3,15.01,22.3Z"/>
    </g>
  </g>
</svg>